<?xml version="1.0" standalone="no"?>
<!DOCTYPE svg PUBLIC "-//W3C//DTD SVG 20010904//EN"
 "http://www.w3.org/TR/2001/REC-SVG-20010904/DTD/svg10.dtd">
<svg version="1.0" xmlns="http://www.w3.org/2000/svg"
 width="300.000000pt" height="240.000000pt" viewBox="0 0 300.000000 240.000000"
 preserveAspectRatio="xMidYMid meet">
<metadata>
Created by potrace 1.10, written by Peter Selinger 2001-2011
</metadata>
<g transform="translate(0.000000,240.000000) scale(0.100000,-0.100000)"
fill="#000000" stroke="none">
<path d="M1188 1963 c-16 -39 -22 -167 -10 -202 9 -25 7 -41 -11 -88 -33 -86
-26 -148 20 -202 19 -23 58 -55 87 -71 28 -17 46 -30 39 -30 -6 0 -26 -12 -43
-26 l-31 -27 -22 20 c-47 42 -101 72 -112 63 -14 -12 2 -111 24 -150 8 -14 15
-48 15 -76 1 -37 7 -58 21 -74 11 -12 20 -30 21 -39 1 -9 2 -33 3 -54 2 -64
31 -83 137 -90 54 -3 94 -1 101 5 7 6 29 7 50 4 51 -9 76 -10 154 -8 90 3 109
18 115 96 3 38 13 69 27 88 15 20 22 44 22 76 1 26 6 56 12 67 5 11 16 45 23
75 7 30 23 66 35 80 51 57 58 110 25 201 -12 37 -17 69 -13 92 10 65 -38 109
-90 82 l-25 -13 5 57 c6 61 -19 171 -38 171 -22 0 -78 -29 -112 -59 l-36 -32
-60 12 c-49 10 -70 10 -111 0 -48 -12 -51 -12 -81 14 -34 28 -101 65 -119 65
-6 0 -16 -12 -22 -27z m63 -9 c17 -8 47 -31 68 -50 35 -31 41 -33 70 -23 37
13 47 8 33 -16 -5 -10 -7 -59 -4 -109 l4 -91 -24 23 c-30 27 -62 28 -88 2 -21
-21 -27 -74 -10 -85 20 -13 9 -25 -23 -25 -18 0 -42 -7 -53 -15 -18 -14 -18
-14 0 -15 14 0 17 -5 13 -21 -3 -13 3 -39 14 -60 11 -22 16 -39 11 -39 -17 0
-82 71 -88 96 -17 68 19 184 81 260 19 23 35 50 35 59 0 21 -24 68 -44 84 -11
9 -10 0 6 -37 l21 -50 -34 -41 c-19 -22 -38 -41 -43 -41 -10 0 -2 164 9 193 9
21 9 21 46 1z m489 -51 c6 -36 8 -84 5 -106 l-7 -39 -34 37 c-39 43 -41 57
-15 108 10 20 15 37 11 37 -11 0 -41 -48 -51 -83 -8 -27 -4 -35 36 -79 49 -54
85 -148 85 -219 0 -32 -7 -46 -45 -86 -51 -53 -66 -53 -36 0 11 20 16 39 11
42 -13 8 -1 33 18 38 24 6 -31 27 -69 27 -29 0 -30 1 -15 22 22 30 20 60 -4
86 -26 27 -64 28 -89 3 -19 -19 -19 -18 -23 87 -2 59 -3 109 -1 111 1 2 16 -1
32 -7 28 -10 34 -8 63 19 30 28 94 67 109 69 4 0 12 -30 19 -67z m-246 -45
c-2 -24 -6 -58 -9 -75 -4 -20 -2 -33 4 -33 6 0 8 -13 4 -32 -4 -22 -3 -29 5
-24 8 5 12 -5 12 -33 0 -28 7 -48 24 -68 20 -23 32 -28 80 -30 57 -2 76 -8 76
-23 0 -5 -31 -6 -69 -3 -66 5 -70 5 -65 -14 7 -25 -18 -46 -48 -41 -17 2 -24
10 -26 34 -2 19 3 36 12 44 22 17 20 37 -4 50 -40 21 -79 -22 -45 -50 30 -25
12 -80 -26 -80 -25 0 -49 28 -42 47 6 14 -2 15 -60 11 -37 -3 -67 -3 -67 1 0
18 25 28 59 24 45 -6 98 18 110 50 16 39 31 171 26 230 -4 57 -4 57 25 57 27
0 28 -2 24 -42z m354 -110 c7 -7 12 -38 12 -70 0 -33 6 -71 14 -86 27 -53 29
-94 4 -142 -17 -32 -30 -46 -48 -48 -14 -2 -39 -15 -57 -28 -51 -38 -48 -28 5
24 65 63 73 97 37 158 -15 25 -24 48 -21 51 3 4 1 12 -5 19 -11 14 -20 100
-12 121 6 16 55 17 71 1z m-463 -58 c4 -6 -5 -10 -19 -10 -19 0 -26 -5 -26
-19 0 -11 -6 -21 -12 -24 -19 -6 7 -35 35 -40 19 -4 19 -4 -3 -6 -15 0 -31 4
-38 11 -18 18 -15 75 6 87 22 13 49 14 57 1z m227 -7 c20 -18 24 -63 6 -81 -7
-7 -26 -12 -42 -11 l-31 1 31 9 c36 10 51 34 27 43 -8 4 -13 13 -9 21 4 11 -2
15 -20 15 -14 0 -22 4 -19 10 9 15 36 12 57 -7z m-122 -97 c0 -19 -26 -27 -39
-12 -13 15 -4 26 21 26 10 0 18 -6 18 -14z m330 -94 c0 -25 -82 -119 -124
-141 -21 -12 -28 -11 -50 7 l-26 20 45 22 c54 26 125 105 125 140 l1 25 14
-25 c8 -14 14 -35 15 -48z m-463 23 c2 -6 -10 -16 -26 -23 -16 -7 -32 -20 -35
-28 -6 -17 7 -11 37 15 15 12 22 13 37 3 11 -7 27 -12 35 -12 8 0 24 -9 35
-20 11 -11 25 -20 30 -20 6 0 18 9 27 20 10 11 23 20 30 20 7 0 22 5 33 12 16
10 24 9 50 -10 16 -12 30 -19 30 -16 0 14 -33 44 -47 44 -8 0 -13 6 -10 13 5
14 75 13 90 -2 6 -6 0 -28 -14 -58 -21 -42 -29 -49 -69 -60 -58 -15 -165 -16
-230 -2 -43 9 -55 17 -76 51 -14 22 -24 47 -22 56 5 26 87 41 95 17z m458
-167 c-9 -56 -15 -61 -45 -38 l-25 19 35 30 c19 17 37 30 38 31 2 0 1 -19 -3
-42z m-659 10 c16 -12 31 -23 33 -25 4 -3 -41 -42 -50 -43 -3 0 -10 20 -16 45
-12 51 -7 54 33 23z m224 -27 c0 -41 16 -56 41 -40 19 12 66 11 90 -2 28 -15
49 5 49 47 0 23 5 34 14 34 19 0 33 -23 18 -28 -7 -2 -12 -12 -12 -22 0 -28
-11 -51 -21 -44 -5 3 -9 1 -9 -5 0 -5 -18 -29 -41 -53 l-40 -43 -24 28 c-13
15 -29 27 -34 27 -6 0 -13 11 -17 25 -3 14 -12 25 -20 25 -13 0 -19 18 -15 48
1 6 -3 12 -9 12 -5 0 -10 7 -10 15 0 8 9 15 20 15 17 0 20 -7 20 -39z m53 10
c5 -22 0 -31 -20 -31 -7 0 -13 11 -13 25 0 30 25 34 33 6z m105 -6 c0 -14 -6
-25 -13 -25 -18 0 -23 9 -18 31 8 28 31 23 31 -6z m-136 -126 c31 -32 60 -59
65 -59 15 0 133 124 133 140 0 5 4 20 10 35 10 27 19 26 64 -9 18 -14 16 -18
-28 -81 -45 -63 -64 -81 -52 -50 6 17 -2 45 -14 45 -5 0 -6 -16 -3 -37 4 -26
3 -34 -5 -29 -8 5 -12 -2 -12 -21 0 -27 -76 -163 -91 -163 -15 0 -89 128 -89
153 0 15 -4 27 -10 27 -5 0 -10 18 -10 41 0 27 -4 38 -11 33 -7 -4 -9 -21 -5
-42 3 -20 2 -31 -3 -26 -17 18 -91 127 -91 135 0 4 15 16 33 28 l32 20 15 -40
c8 -22 40 -67 72 -100z m394 57 c-4 -18 -21 -16 -50 7 -21 17 -27 29 -23 41 6
16 11 15 41 -11 19 -15 33 -32 32 -37z m-572 29 c21 -31 21 -30 -14 -55 -44
-31 -59 -14 -18 21 18 15 29 28 24 29 -6 0 -20 -10 -33 -22 -18 -17 -26 -19
-35 -10 -10 10 -6 18 17 37 37 30 39 30 59 0z m496 -15 c0 -6 11 -16 25 -22
14 -6 25 -17 25 -25 0 -18 -13 -16 -44 8 -26 20 -35 49 -16 49 6 0 10 -5 10
-10z m-387 -144 l76 -114 -23 -21 c-12 -12 -26 -21 -32 -21 -15 1 -85 108 -74
115 17 11 11 54 -11 76 -14 14 -28 19 -44 15 -36 -9 -41 13 -9 40 16 13 32 23
35 24 3 0 40 -51 82 -114z m391 90 c30 -25 28 -51 -4 -41 -44 14 -87 -39 -67
-82 8 -18 3 -30 -28 -72 -20 -28 -40 -51 -43 -51 -4 0 -18 9 -32 19 l-24 19
77 116 c42 64 80 116 85 116 4 -1 20 -11 36 -24z m-539 -74 c-3 -8 -5 -19 -6
-25 -1 -21 -18 27 -18 53 0 24 0 24 15 5 8 -11 12 -26 9 -33z m591 17 c-9 -44
-49 -83 -79 -75 -22 5 -36 46 -16 46 6 0 7 5 4 10 -9 15 21 23 43 11 16 -8 21
-6 30 14 16 35 26 31 18 -6z m-533 -17 c-2 -7 3 -12 11 -12 24 0 14 -40 -11
-46 -12 -3 -28 -4 -34 -2 -17 6 -22 48 -8 65 14 16 45 12 42 -5z m65 -150 c38
-57 39 -62 12 -62 -12 0 -24 10 -30 23 l-9 22 0 -22 c-1 -14 -7 -23 -16 -23
-9 0 -20 10 -25 23 -5 12 -9 16 -9 9 -1 -21 -21 -3 -21 19 0 21 33 59 53 59 6
0 27 -22 45 -48z m396 32 c17 -17 23 -79 6 -69 -6 3 -13 -1 -16 -9 -9 -24 -34
-19 -35 7 l0 22 -9 -22 c-6 -16 -18 -23 -35 -23 -28 0 -29 -3 19 68 31 45 46
51 70 26z m-269 -51 c10 -42 -38 -71 -65 -38 -10 12 -7 19 17 39 36 32 39 32
48 -1z m101 12 c8 -8 22 -19 32 -24 13 -8 14 -12 3 -25 -18 -22 -44 -20 -66 4
-26 29 -9 38 20 10 14 -13 27 -21 30 -18 3 3 -6 13 -20 22 -14 9 -25 23 -25
31 0 19 7 19 26 0z"/>
<path d="M1338 1748 c-16 -6 -28 -14 -28 -20 0 -6 7 -7 16 -4 9 3 29 6 45 6
16 0 29 4 29 9 0 14 -33 19 -62 9z"/>
<path d="M1550 1750 c-20 -12 -13 -16 39 -23 36 -5 41 -3 30 8 -20 19 -52 26
-69 15z"/>
<path d="M2205 1060 c-14 -16 -15 -22 -5 -35 28 -34 77 -4 53 33 -15 24 -28
24 -48 2z m41 -11 c10 -17 -13 -36 -27 -22 -12 12 -4 33 11 33 5 0 12 -5 16
-11z"/>
<path d="M586 754 c-9 -8 -16 -20 -16 -25 0 -12 38 -49 66 -65 10 -7 15 -15
11 -20 -4 -5 -17 -3 -27 4 -20 12 -50 16 -50 6 0 -3 5 -14 10 -25 14 -26 71
-26 94 0 22 24 9 54 -34 76 -17 9 -30 20 -30 25 0 13 27 13 35 0 8 -13 45 -13
45 -1 0 19 -32 41 -60 41 -16 0 -36 -7 -44 -16z"/>
<path d="M754 690 c0 -69 2 -80 17 -80 14 0 17 8 16 48 -2 34 2 46 11 44 9 -2
12 7 10 30 -2 27 -8 34 -28 36 -25 3 -25 2 -26 -78z"/>
<path d="M840 735 c0 -23 4 -34 13 -32 8 1 11 -11 9 -45 -3 -39 -1 -48 12 -48
13 0 16 14 16 80 0 79 0 80 -25 80 -22 0 -25 -4 -25 -35z"/>
<path d="M995 758 c-2 -7 -9 -35 -15 -62 -6 -27 -15 -57 -21 -67 -8 -16 -6
-19 16 -19 14 0 25 5 25 10 0 6 11 10 25 10 14 0 25 -4 25 -10 0 -5 12 -10 26
-10 16 0 23 4 18 11 -4 7 -14 42 -24 78 -14 59 -19 66 -43 69 -16 2 -29 -2
-32 -10z m47 -71 c4 -18 0 -23 -18 -23 -13 0 -20 5 -18 13 2 7 6 20 9 29 6 20
22 10 27 -19z"/>
<path d="M1155 690 c0 -77 1 -80 23 -80 19 0 22 4 17 23 -4 12 -9 30 -12 41
-3 12 -1 17 8 14 8 -3 18 -21 23 -41 8 -29 14 -37 33 -37 27 0 28 2 7 42 -9
17 -12 33 -7 37 16 10 21 35 12 59 -7 19 -16 22 -56 22 l-48 0 0 -80z m71 21
c-11 -18 -36 -13 -36 7 0 10 3 22 7 26 10 10 37 -20 29 -33z"/>
<path d="M1327 750 c3 -11 12 -20 19 -20 10 0 14 -16 14 -60 0 -53 2 -60 20
-60 18 0 20 7 20 60 0 47 3 60 15 60 8 0 15 9 15 20 0 18 -7 20 -54 20 -49 0
-54 -2 -49 -20z"/>
<path d="M1490 690 l0 -80 50 0 c44 0 50 2 50 21 0 19 -4 21 -30 16 -25 -6
-30 -3 -30 13 0 17 5 19 25 14 21 -5 25 -3 25 15 0 16 -6 21 -25 21 -16 0 -25
6 -25 16 0 12 7 14 30 9 26 -6 30 -4 30 14 0 18 -6 21 -50 21 l-50 0 0 -80z"/>
<path d="M1655 690 c0 -72 2 -80 19 -80 16 0 18 6 14 44 -4 32 -2 46 8 50 9 3
14 -2 14 -15 0 -30 28 -79 45 -79 12 0 15 16 15 80 0 67 -3 80 -16 80 -13 0
-15 -9 -12 -45 3 -45 -7 -61 -18 -27 -20 60 -28 72 -48 72 -20 0 -21 -5 -21
-80z"/>
<path d="M1835 690 c0 -76 1 -80 23 -80 22 0 24 12 7 67 -2 7 2 10 10 6 8 -3
19 -19 23 -37 6 -21 15 -32 30 -34 26 -4 27 0 7 39 -14 27 -14 31 0 45 18 18
19 28 5 55 -8 15 -21 19 -58 19 l-47 0 0 -80z m73 31 c-5 -24 -38 -27 -38 -3
0 10 3 21 6 25 11 11 35 -5 32 -22z"/>
<path d="M2026 754 c-10 -10 -16 -33 -16 -64 0 -58 18 -80 65 -80 24 0 38 6
45 19 14 27 13 114 -2 129 -17 17 -74 15 -92 -4z m64 -64 c0 -43 -3 -50 -20
-50 -17 0 -20 7 -20 50 0 43 3 50 20 50 17 0 20 -7 20 -50z"/>
<path d="M2200 690 l0 -80 45 0 c38 0 45 3 45 20 0 15 -7 20 -25 20 -24 0 -25
3 -25 60 0 53 -2 60 -20 60 -18 0 -20 -7 -20 -80z"/>
<path d="M2350 690 l0 -80 45 0 c38 0 45 3 45 20 0 15 -7 20 -26 20 -25 0 -26
1 -22 60 3 57 2 60 -19 60 -22 0 -23 -4 -23 -80z"/>
<path d="M808 675 c-10 -11 4 -45 19 -45 9 0 13 8 11 22 -3 21 -19 34 -30 23z"/>
</g>
</svg>
